<?xml version="1.0" standalone="no"?>
<!DOCTYPE svg PUBLIC "-//W3C//DTD SVG 20010904//EN"
 "http://www.w3.org/TR/2001/REC-SVG-20010904/DTD/svg10.dtd">
<svg version="1.0" xmlns="http://www.w3.org/2000/svg"
 width="48.000000pt" height="48.000000pt" viewBox="0 0 48.000000 48.000000"
 preserveAspectRatio="xMidYMid meet">

<g transform="translate(0.000000,48.000000) scale(0.100000,-0.100000)"
fill="#000000" stroke="none">
<path d="M123 413 c-31 -6 -70 -48 -77 -84 -10 -51 25 -113 111 -195 43 -41
80 -74 83 -74 3 0 40 33 83 74 116 110 141 189 81 250 -35 34 -80 40 -126 17
-38 -18 -39 -18 -75 0 -21 11 -42 18 -48 18 -5 -1 -20 -4 -32 -6z"/>
</g>
</svg>
